<mxfile host="app.diagrams.net" agent="Mozilla/5.0 (Windows NT 10.0; Win64; x64) AppleWebKit/537.36 (KHTML, like Gecko) Chrome/135.0.0.0 Safari/537.36 OPR/120.0.0.0 (Edition std-2)" version="28.0.7">
  <diagram name="Страница — 1" id="Vt8vXM-Uneeu_JoNPUon">
    <mxGraphModel dx="2984" dy="1231" grid="1" gridSize="10" guides="1" tooltips="1" connect="1" arrows="1" fold="1" page="1" pageScale="1" pageWidth="827" pageHeight="1169" math="0" shadow="0">
      <root>
        <mxCell id="0" />
        <mxCell id="1" parent="0" />
        <mxCell id="btVaQj-cG6x5EHRA9ClU-1" value="Безопасность данных" style="rounded=0;whiteSpace=wrap;html=1;" vertex="1" parent="1">
          <mxGeometry x="437" y="410" width="254" height="60" as="geometry" />
        </mxCell>
        <mxCell id="btVaQj-cG6x5EHRA9ClU-24" style="edgeStyle=orthogonalEdgeStyle;rounded=0;orthogonalLoop=1;jettySize=auto;html=1;exitX=0.5;exitY=1;exitDx=0;exitDy=0;entryX=0.5;entryY=0;entryDx=0;entryDy=0;" edge="1" parent="1" source="btVaQj-cG6x5EHRA9ClU-2" target="btVaQj-cG6x5EHRA9ClU-19">
          <mxGeometry relative="1" as="geometry" />
        </mxCell>
        <mxCell id="btVaQj-cG6x5EHRA9ClU-2" value="Публичные данные" style="rounded=0;whiteSpace=wrap;html=1;" vertex="1" parent="1">
          <mxGeometry x="590" y="565" width="120" height="60" as="geometry" />
        </mxCell>
        <mxCell id="btVaQj-cG6x5EHRA9ClU-25" style="edgeStyle=orthogonalEdgeStyle;rounded=0;orthogonalLoop=1;jettySize=auto;html=1;exitX=0.5;exitY=1;exitDx=0;exitDy=0;" edge="1" parent="1" source="btVaQj-cG6x5EHRA9ClU-3" target="btVaQj-cG6x5EHRA9ClU-20">
          <mxGeometry relative="1" as="geometry" />
        </mxCell>
        <mxCell id="btVaQj-cG6x5EHRA9ClU-3" value="Внутренние данные" style="rounded=0;whiteSpace=wrap;html=1;" vertex="1" parent="1">
          <mxGeometry x="770" y="565" width="120" height="60" as="geometry" />
        </mxCell>
        <mxCell id="btVaQj-cG6x5EHRA9ClU-4" value="&lt;div&gt;&lt;br&gt;&lt;/div&gt;&lt;div&gt;&lt;br&gt;&lt;/div&gt;&lt;div&gt;&lt;br&gt;&lt;/div&gt;&lt;div&gt;&lt;br&gt;&lt;/div&gt;&lt;div&gt;&lt;br&gt;&lt;/div&gt;&lt;div&gt;&lt;br&gt;&lt;/div&gt;&lt;div&gt;&lt;br&gt;&lt;/div&gt;&lt;div&gt;&lt;br&gt;&lt;/div&gt;&lt;div&gt;&lt;br&gt;&lt;/div&gt;&lt;div&gt;Категории данных&lt;/div&gt;" style="rounded=0;whiteSpace=wrap;html=1;align=left;fillColor=none;" vertex="1" parent="1">
          <mxGeometry x="226" y="520" width="694" height="150" as="geometry" />
        </mxCell>
        <mxCell id="btVaQj-cG6x5EHRA9ClU-5" style="edgeStyle=orthogonalEdgeStyle;rounded=0;orthogonalLoop=1;jettySize=auto;html=1;exitX=0.5;exitY=1;exitDx=0;exitDy=0;" edge="1" parent="1" source="btVaQj-cG6x5EHRA9ClU-2" target="btVaQj-cG6x5EHRA9ClU-2">
          <mxGeometry relative="1" as="geometry" />
        </mxCell>
        <mxCell id="btVaQj-cG6x5EHRA9ClU-23" style="edgeStyle=orthogonalEdgeStyle;rounded=0;orthogonalLoop=1;jettySize=auto;html=1;exitX=0.5;exitY=1;exitDx=0;exitDy=0;entryX=0.5;entryY=0;entryDx=0;entryDy=0;" edge="1" parent="1" source="btVaQj-cG6x5EHRA9ClU-6" target="btVaQj-cG6x5EHRA9ClU-18">
          <mxGeometry relative="1" as="geometry" />
        </mxCell>
        <mxCell id="btVaQj-cG6x5EHRA9ClU-6" value="Конфиденциальные данные" style="rounded=0;whiteSpace=wrap;html=1;" vertex="1" parent="1">
          <mxGeometry x="420" y="565" width="120" height="60" as="geometry" />
        </mxCell>
        <mxCell id="btVaQj-cG6x5EHRA9ClU-22" style="edgeStyle=orthogonalEdgeStyle;rounded=0;orthogonalLoop=1;jettySize=auto;html=1;exitX=0.5;exitY=1;exitDx=0;exitDy=0;" edge="1" parent="1" source="btVaQj-cG6x5EHRA9ClU-7" target="btVaQj-cG6x5EHRA9ClU-17">
          <mxGeometry relative="1" as="geometry" />
        </mxCell>
        <mxCell id="btVaQj-cG6x5EHRA9ClU-7" value="Секретные данные" style="rounded=0;whiteSpace=wrap;html=1;" vertex="1" parent="1">
          <mxGeometry x="250" y="565" width="120" height="60" as="geometry" />
        </mxCell>
        <mxCell id="btVaQj-cG6x5EHRA9ClU-8" value="" style="endArrow=classic;html=1;rounded=0;exitX=0.25;exitY=1;exitDx=0;exitDy=0;entryX=0.5;entryY=0;entryDx=0;entryDy=0;" edge="1" parent="1" source="btVaQj-cG6x5EHRA9ClU-1" target="btVaQj-cG6x5EHRA9ClU-7">
          <mxGeometry width="50" height="50" relative="1" as="geometry">
            <mxPoint x="610" y="460" as="sourcePoint" />
            <mxPoint x="660" y="410" as="targetPoint" />
          </mxGeometry>
        </mxCell>
        <mxCell id="btVaQj-cG6x5EHRA9ClU-10" value="" style="endArrow=classic;html=1;rounded=0;exitX=0.368;exitY=1.047;exitDx=0;exitDy=0;exitPerimeter=0;entryX=0.5;entryY=0;entryDx=0;entryDy=0;" edge="1" parent="1" source="btVaQj-cG6x5EHRA9ClU-1" target="btVaQj-cG6x5EHRA9ClU-6">
          <mxGeometry width="50" height="50" relative="1" as="geometry">
            <mxPoint x="610" y="460" as="sourcePoint" />
            <mxPoint x="660" y="410" as="targetPoint" />
          </mxGeometry>
        </mxCell>
        <mxCell id="btVaQj-cG6x5EHRA9ClU-13" value="" style="endArrow=classic;html=1;rounded=0;exitX=0.648;exitY=1.033;exitDx=0;exitDy=0;entryX=0.5;entryY=0;entryDx=0;entryDy=0;exitPerimeter=0;" edge="1" parent="1" source="btVaQj-cG6x5EHRA9ClU-1" target="btVaQj-cG6x5EHRA9ClU-2">
          <mxGeometry width="50" height="50" relative="1" as="geometry">
            <mxPoint x="653" y="520" as="sourcePoint" />
            <mxPoint x="620" y="612" as="targetPoint" />
          </mxGeometry>
        </mxCell>
        <mxCell id="btVaQj-cG6x5EHRA9ClU-14" value="" style="endArrow=classic;html=1;rounded=0;exitX=0.884;exitY=1.007;exitDx=0;exitDy=0;entryX=0.5;entryY=0;entryDx=0;entryDy=0;exitPerimeter=0;" edge="1" parent="1" source="btVaQj-cG6x5EHRA9ClU-1" target="btVaQj-cG6x5EHRA9ClU-3">
          <mxGeometry width="50" height="50" relative="1" as="geometry">
            <mxPoint x="680" y="500" as="sourcePoint" />
            <mxPoint x="718" y="593" as="targetPoint" />
          </mxGeometry>
        </mxCell>
        <mxCell id="btVaQj-cG6x5EHRA9ClU-15" value="&lt;div&gt;&lt;br&gt;&lt;/div&gt;&lt;div&gt;&lt;br&gt;&lt;/div&gt;&lt;div&gt;&lt;br&gt;&lt;/div&gt;&lt;div&gt;&lt;br&gt;&lt;/div&gt;&lt;div&gt;&lt;br&gt;&lt;/div&gt;&lt;div&gt;&lt;br&gt;&lt;/div&gt;&lt;div&gt;&lt;br&gt;&lt;/div&gt;&lt;div&gt;&lt;br&gt;&lt;/div&gt;&lt;div&gt;&lt;br&gt;&lt;/div&gt;&lt;div&gt;Типы данных&lt;/div&gt;" style="rounded=0;whiteSpace=wrap;html=1;align=left;fillColor=none;" vertex="1" parent="1">
          <mxGeometry x="226" y="700" width="694" height="150" as="geometry" />
        </mxCell>
        <mxCell id="btVaQj-cG6x5EHRA9ClU-16" value="&lt;div&gt;&lt;br&gt;&lt;/div&gt;&lt;div&gt;&lt;br&gt;&lt;/div&gt;&lt;div&gt;&lt;br&gt;&lt;/div&gt;&lt;div&gt;&lt;br&gt;&lt;/div&gt;&lt;div&gt;&lt;br&gt;&lt;/div&gt;&lt;div&gt;&lt;br&gt;&lt;/div&gt;&lt;div&gt;&lt;br&gt;&lt;/div&gt;&lt;div&gt;&lt;br&gt;&lt;/div&gt;&lt;div&gt;&lt;br&gt;&lt;/div&gt;&lt;div&gt;&lt;br&gt;&lt;/div&gt;&lt;div&gt;&lt;br&gt;&lt;/div&gt;&lt;div&gt;&lt;br&gt;&lt;/div&gt;&lt;div&gt;&lt;br&gt;&lt;/div&gt;&lt;div&gt;&lt;br&gt;&lt;/div&gt;&lt;div&gt;&lt;br&gt;&lt;/div&gt;&lt;div&gt;&lt;br&gt;&lt;/div&gt;&lt;div&gt;&lt;br&gt;&lt;/div&gt;&lt;div&gt;&lt;br&gt;&lt;/div&gt;&lt;div&gt;&lt;br&gt;&lt;/div&gt;&lt;div&gt;&lt;br&gt;&lt;/div&gt;&lt;div&gt;&lt;br&gt;&lt;/div&gt;&lt;div&gt;&lt;br&gt;&lt;/div&gt;&lt;div&gt;&lt;br&gt;&lt;/div&gt;&lt;div&gt;Риски&lt;/div&gt;" style="rounded=0;whiteSpace=wrap;html=1;align=left;fillColor=none;" vertex="1" parent="1">
          <mxGeometry x="-190" y="930" width="1500" height="370" as="geometry" />
        </mxCell>
        <mxCell id="btVaQj-cG6x5EHRA9ClU-17" value="Каталоги объектов недвижимости" style="rounded=0;whiteSpace=wrap;html=1;" vertex="1" parent="1">
          <mxGeometry x="250" y="745" width="120" height="60" as="geometry" />
        </mxCell>
        <mxCell id="btVaQj-cG6x5EHRA9ClU-18" value="Внутренняя документация" style="rounded=0;whiteSpace=wrap;html=1;" vertex="1" parent="1">
          <mxGeometry x="420" y="745" width="120" height="60" as="geometry" />
        </mxCell>
        <mxCell id="btVaQj-cG6x5EHRA9ClU-19" value="Персональные данные" style="rounded=0;whiteSpace=wrap;html=1;" vertex="1" parent="1">
          <mxGeometry x="590" y="745" width="120" height="60" as="geometry" />
        </mxCell>
        <mxCell id="btVaQj-cG6x5EHRA9ClU-20" value="Ключи, пароли" style="rounded=0;whiteSpace=wrap;html=1;" vertex="1" parent="1">
          <mxGeometry x="770" y="745" width="120" height="60" as="geometry" />
        </mxCell>
        <mxCell id="btVaQj-cG6x5EHRA9ClU-26" value="&lt;div style=&quot;&quot;&gt;&amp;nbsp;&lt;span style=&quot;white-space: pre;&quot;&gt;&#x9;&lt;/span&gt;1. Искажение данных (значительный): Ложная информация приводит к потерям сделок и недоверию&lt;/div&gt;&lt;div style=&quot;&quot;&gt;Услуги компании становятся недостоверными, портится имидж&lt;/div&gt;&lt;div style=&quot;&quot;&gt;&lt;br&gt;&lt;/div&gt;&lt;div style=&quot;&quot;&gt;&amp;nbsp;&lt;span style=&quot;white-space: pre;&quot;&gt;&#x9;&lt;/span&gt;2. Некачественные данные (значительный): Ошибки, устаревшие данные мешают работе пользователей/клиентов&lt;/div&gt;&lt;div style=&quot;&quot;&gt;Потеря репутации, снижение трафика&lt;/div&gt;&lt;div style=&quot;&quot;&gt;&lt;br&gt;&lt;/div&gt;&lt;div style=&quot;&quot;&gt;&amp;nbsp;&lt;span style=&quot;white-space: pre;&quot;&gt;&#x9;&lt;/span&gt;3. Утечка (незначительный): Эти данные и так доступны всем&lt;/div&gt;&lt;div style=&quot;&quot;&gt;Утечка не наносит ущерба&lt;/div&gt;&lt;div style=&quot;&quot;&gt;&lt;br&gt;&lt;/div&gt;&lt;div style=&quot;&quot;&gt;&amp;nbsp;&lt;span style=&quot;white-space: pre;&quot;&gt;&#x9;&lt;/span&gt;4. Потеря (незначительный): Быстро восстанавливаются, не имеют критической ценности&lt;/div&gt;" style="rounded=0;whiteSpace=wrap;html=1;align=left;" vertex="1" parent="1">
          <mxGeometry x="-150" y="960" width="370" height="300" as="geometry" />
        </mxCell>
        <mxCell id="btVaQj-cG6x5EHRA9ClU-27" value="&lt;div&gt;&lt;br&gt;&lt;/div&gt;&lt;div&gt;&lt;span style=&quot;white-space: pre;&quot;&gt;&#x9;&lt;/span&gt;1. Утечка данных (значительный): Может навредить на переговорах/конкуренции&lt;/div&gt;&lt;div&gt;Потеря бизнес-преимуществ&lt;/div&gt;&lt;div&gt;&lt;br&gt;&lt;/div&gt;&lt;div&gt;&lt;span style=&quot;white-space: pre;&quot;&gt;&#x9;&lt;/span&gt;2. Потеря данных (значительный): Утрачиваются знания, нарушается непрерывность работы&lt;/div&gt;&lt;div&gt;Процессы встают, обучение сотрудников затрудняется&lt;/div&gt;&lt;div&gt;&lt;br&gt;&lt;/div&gt;&lt;div&gt;3. Искажение, некачественность (значительный): Дезинформирует сотрудников, ведет к ошибкам в работе&lt;/div&gt;&lt;div&gt;Возникают операционные сбои&lt;/div&gt;" style="rounded=0;whiteSpace=wrap;html=1;align=left;" vertex="1" parent="1">
          <mxGeometry x="240" y="960" width="330" height="300" as="geometry" />
        </mxCell>
        <mxCell id="btVaQj-cG6x5EHRA9ClU-34" value="" style="endArrow=classic;html=1;rounded=0;exitX=0.5;exitY=1;exitDx=0;exitDy=0;entryX=0.5;entryY=0;entryDx=0;entryDy=0;" edge="1" parent="1" source="btVaQj-cG6x5EHRA9ClU-19">
          <mxGeometry width="50" height="50" relative="1" as="geometry">
            <mxPoint x="830" y="910" as="sourcePoint" />
            <mxPoint x="750" y="960" as="targetPoint" />
          </mxGeometry>
        </mxCell>
        <mxCell id="btVaQj-cG6x5EHRA9ClU-35" value="" style="endArrow=classic;html=1;rounded=0;exitX=0.5;exitY=1;exitDx=0;exitDy=0;entryX=0.5;entryY=0;entryDx=0;entryDy=0;" edge="1" parent="1" source="btVaQj-cG6x5EHRA9ClU-18" target="btVaQj-cG6x5EHRA9ClU-27">
          <mxGeometry width="50" height="50" relative="1" as="geometry">
            <mxPoint x="830" y="910" as="sourcePoint" />
            <mxPoint x="880" y="860" as="targetPoint" />
          </mxGeometry>
        </mxCell>
        <mxCell id="btVaQj-cG6x5EHRA9ClU-36" value="" style="endArrow=classic;html=1;rounded=0;exitX=0.5;exitY=1;exitDx=0;exitDy=0;entryX=0.5;entryY=0;entryDx=0;entryDy=0;" edge="1" parent="1" source="btVaQj-cG6x5EHRA9ClU-17" target="btVaQj-cG6x5EHRA9ClU-26">
          <mxGeometry width="50" height="50" relative="1" as="geometry">
            <mxPoint x="300" y="910" as="sourcePoint" />
            <mxPoint x="350" y="860" as="targetPoint" />
          </mxGeometry>
        </mxCell>
        <mxCell id="btVaQj-cG6x5EHRA9ClU-37" value="" style="endArrow=classic;html=1;rounded=0;exitX=0.5;exitY=1;exitDx=0;exitDy=0;entryX=0.5;entryY=0;entryDx=0;entryDy=0;" edge="1" parent="1" source="btVaQj-cG6x5EHRA9ClU-20" target="btVaQj-cG6x5EHRA9ClU-39">
          <mxGeometry width="50" height="50" relative="1" as="geometry">
            <mxPoint x="300" y="910" as="sourcePoint" />
            <mxPoint x="1155" y="960" as="targetPoint" />
          </mxGeometry>
        </mxCell>
        <mxCell id="btVaQj-cG6x5EHRA9ClU-38" value="&lt;div&gt;&lt;span style=&quot;white-space: normal;&quot;&gt;&lt;span style=&quot;white-space:pre&quot;&gt;&#x9;&lt;/span&gt;1.Утечка данных (критический): Законодательные риски, крупные штрафы, потеря доверия&lt;/span&gt;&lt;/div&gt;&lt;div&gt;Нарушение ФЗ-152, судебные иски, негатив в СМИ&lt;/div&gt;&lt;div&gt;&lt;br&gt;&lt;/div&gt;&lt;div&gt;&lt;span style=&quot;white-space: normal;&quot;&gt;&lt;span style=&quot;white-space:pre&quot;&gt;&#x9;&lt;/span&gt;2. Искажение (значительный): Приводит к ошибкам в обслуживании, потере клиентов&lt;/span&gt;&lt;/div&gt;&lt;div&gt;Ошибки в сделках, негатив клиента&lt;/div&gt;&lt;div&gt;&lt;br&gt;&lt;/div&gt;&lt;div&gt;&lt;span style=&quot;white-space: normal;&quot;&gt;&lt;span style=&quot;white-space:pre&quot;&gt;&#x9;&lt;/span&gt;3. Потеря (критический): Безвозвратная потеря клиентской базы&lt;/span&gt;&lt;/div&gt;&lt;div&gt;Коммерческие и юридические последствия&lt;/div&gt;&lt;div&gt;&lt;br&gt;&lt;/div&gt;&lt;div&gt;&lt;span style=&quot;white-space: normal;&quot;&gt;&lt;span style=&quot;white-space:pre&quot;&gt;&#x9;&lt;/span&gt;4. Некачественные данные (значительный): Нарушение работы сервисов/аналитики&lt;/span&gt;&lt;/div&gt;&lt;div&gt;Ошибки в BI, неэффективные процессы&lt;/div&gt;&lt;div&gt;&lt;br&gt;&lt;/div&gt;&lt;div&gt;&lt;span style=&quot;white-space: normal;&quot;&gt;&lt;span style=&quot;white-space:pre&quot;&gt;&#x9;&lt;/span&gt;5. Обесценивание (значительный): Устаревание снижает качество обслуживания&lt;/span&gt;&lt;/div&gt;&lt;div&gt;Потеря доверия клиентов&lt;/div&gt;" style="rounded=0;whiteSpace=wrap;html=1;align=left;" vertex="1" parent="1">
          <mxGeometry x="590" y="960" width="330" height="300" as="geometry" />
        </mxCell>
        <mxCell id="btVaQj-cG6x5EHRA9ClU-39" value="&lt;div&gt;&lt;span style=&quot;white-space: normal;&quot;&gt;&lt;span style=&quot;white-space:pre&quot;&gt;&#x9;&lt;/span&gt;1. Утечка (критический): Потеря контроля над инфраструктурой, взлом&lt;/span&gt;&lt;/div&gt;&lt;div&gt;Угроза бизнесу, остановка всех сервисов&lt;/div&gt;&lt;div&gt;&lt;br&gt;&lt;/div&gt;&lt;div&gt;&lt;span style=&quot;white-space: normal;&quot;&gt;&lt;span style=&quot;white-space:pre&quot;&gt;&#x9;&lt;/span&gt;2. Потеря (критический): Потеря доступа, невозможность восстановления информации&lt;/span&gt;&lt;/div&gt;&lt;div&gt;Остановка критических сервисов, невозможность восстановления резервных копий&lt;/div&gt;&lt;div&gt;&lt;br&gt;&lt;/div&gt;&lt;div&gt;&lt;span style=&quot;white-space: normal;&quot;&gt;&lt;span style=&quot;white-space:pre&quot;&gt;&#x9;&lt;/span&gt;3. Искажение (значительный): Могут привести к авариям, потерям данных&lt;/span&gt;&lt;/div&gt;&lt;div&gt;Сбои во всех критических системах&lt;/div&gt;&lt;div&gt;&lt;br&gt;&lt;/div&gt;&lt;div&gt;&lt;span style=&quot;white-space: normal;&quot;&gt;&lt;span style=&quot;white-space:pre&quot;&gt;&#x9;&lt;/span&gt;4. Обесценивание (значительный): Устаревание ключей приведет к рискам безопасности&lt;/span&gt;&lt;/div&gt;&lt;div&gt;Возможность эксплуатации устаревших уязвимостей&lt;/div&gt;" style="rounded=0;whiteSpace=wrap;html=1;align=left;" vertex="1" parent="1">
          <mxGeometry x="940" y="960" width="330" height="300" as="geometry" />
        </mxCell>
      </root>
    </mxGraphModel>
  </diagram>
</mxfile>
